<?xml version="1.0" encoding="UTF-8"?>
<svg id="Layer_2" data-name="Layer 2" xmlns="http://www.w3.org/2000/svg" viewBox="0 0 912.55 587.14">
  <defs>
    <style>
      .cls-1 {
        font-family: MyriadPro-Regular, 'Myriad Pro';
        font-size: 99.78px;
      }

      .cls-1, .cls-2 {
        fill: #fff;
      }

      .cls-2 {
        fill-rule: evenodd;
        stroke-width: 0px;
      }
    </style>
  </defs>
  <g id="Layer_1-2" data-name="Layer 1">
    <path class="cls-2" d="M455,0c37.65.54,65.92,15.2,57,58l-28-2c-26.34-4.03-55.15,1.56-78,3l-2-2c-1.09-54.66,13.63-42.9,51-57Z"/>
    <path class="cls-2" d="M389,68c28.58.15,49,15.25,82,10,19.18-3.05,39.29-12.54,59-9l5,7c-1.54,9.96-8.26,17.86-17,20l-52-9c-22.05-3.48-42.6,5.71-58,9-12.51,2.67-22.17-6.37-25-14-2.27-5.06-.1-8.79,2-12l4-2Z"/>
    <path class="cls-2" d="M449,214c-1.33.67-2.67,1.33-4,2-.67-.33-1.33-.67-2-1-1.94-14.93-5.18-23.37-11-33,16.73-5.86,41.81-44.37,20-61-8.74-6.66-30.07-8.63-44-9,5.25,11.47-2.18,97.53-12,103v1c7,1,14,2,21,3-3.75-8.36-3.75-25.19,1-34v-2c2,.33,4,.67,6,1,4.35,15.22-.3,38.7,20,39,4.79-3.44,6.54-7.19,9-13v-4h-1c-1,2.67-2,5.33-3,8ZM421,178h-1c-3.16-13.25,2.73-48.32,9-59h8c.67.33,1.33.67,2,1,12.84,16.99,2.61,55.43-18,58Z"/>
    <path class="cls-2" d="M188,114c.68,10.71,3.74,21.13-1,29l-2-1c-1.47-7.29-4.96-9.59-9-14-8.18.03-8.71,1.77-13,5-5.59,28.55-4.62,67.16,13,84,14.81-.69,8.85-9.04,17-15h1v9c-6.04,13.31-25.79,18.4-36,5-20.76-27.25-24.41-106.04,26-90v-3l-2-8,1-1h5Z"/>
    <path class="cls-2" d="M285,115l9,1c-8.36,8.66,4.17,61.12,7,79h3c1.45-19.53,14.1-51.59,6-67l-5-2v-1c7.83-.28,19.43-1.54,23,1-21.97,5.37-9.82,75.62-24,91l-6,2c-19.18-25.32-7.38-81.49-32-101l19-3Z"/>
    <path class="cls-2" d="M382,214l-42-4v-1c8.87-4.95,8.36-81.38,2-89l1-1,49,5v10l-2,13h-1l-4-1c.37-13.65-13.56-21.83-24-17l-2,30c2.12,1.3,1.45,1.23,5,2,5.03-2.77,6.93-5.18,8-12h4l-1,31h-1c-2.58-8.37-4.8-13.21-14-15l-1,1-1,41c7.58.1,13.22-1.14,16-6,2.53-3.49,1.92-7.71,6-10l2,1v22Z"/>
    <path class="cls-2" d="M635,119l26,3c-8.21,4.65-9.2,68.77-6,81,3.76,2.69,4.79,4.19,11,5l6-4c4.96-15.34,10.13-60.56,0-73l1-1,16,2c-17.88,19.71,7.02,79.06-30,80-30.48-12.87-8.33-66.3-24-93Z"/>
    <path class="cls-2" d="M524,120h6c-2.94,3.71-4.27,3.42-5,10l17,37h1c3.41-11.23,11.98-27.72,6-38l-4-2,22-2c-14.58,17.18-24.76,47.81-19,79,1.14,6.16,6.27,16.54,6,19l-23,1c16.68-24.98-14.57-93.53-28-100v-2l21-2Z"/>
    <path class="cls-2" d="M225,116c-38,19.8-23.29,103.99,13,95,34.61-8.57,27.28-95.23-13-95ZM236,205c-1.67-.33-3.33-.67-5-1-15.47-7.62-18.52-68.81-6-82,22.88,1.31,24.57,70.24,11,83Z"/>
    <path class="cls-2" d="M594,118c-8.72,5.31-15.73,10.41-20,20-10.17,22.85-8.49,85.11,26,77,33.04-7.77,41.41-98.37-6-97ZM597,209c-24.98-4.52-10.04-72.86-1-85,2.33.33,4.67.67,7,1,17.25,9.91,5.04,74.97-6,84Z"/>
    <path class="cls-2" d="M743,219c.56-16.98,4.19-40.66-8-47v-1c14.72-11.09,25.08-10.19,22-37-12.96-9.73-31.47-10.96-50-16,2.34,11.07-6.31,89.33-19,93,6.33,1.67,12.67,3.33,19,5h4c-6.89-10.8.59-33.03,5-46h9c7.83,14.21-2.94,44.56,10,55,11.7,2.38,15.48-5.5,19-14-.67-.67-1.33-1.33-2-2-1.57,5.65-2.55,8.83-9,10ZM720,164h-2c-2.01-9.67,3.67-28.91,8-37,3.33.67,6.67,1.33,10,2,2,1.67,4,3.33,6,5,2.98,13.64-6.22,36.37-22,30Z"/>
    <path class="cls-2" d="M745,501l-24-3v-1c6-28.66,12-57.34,18-86h1l14,3c-3.02,33.71,1.25,67.47,22,83,23.74,17.77,58.97,11.34,65-19,4.27-21.44-9.56-39.94-17-52-25.86-41.91-56.69-72.67-68-131-9.38-48.35,32.54-96.89,78-86,18.01,4.31,23.33,19.5,37,25l2-20c7.02.15,19.6.57,24,4l-17,70-15-3c18.62-61.6-63.78-91.57-76-36-4.89,22.25,8.46,43.56,16,56,23.98,39.58,52.89,71.77,63,126,10.09,54.13-29.3,99.68-80,84-23.37-7.23-29.82-27.42-43-33v19Z"/>
    <path class="cls-2" d="M732,315l-13-1c1.49-31.61-.99-52.51-31-55l-1,1c-7.67,68.99-15.33,138.01-23,207,1.67,5.67,7.47,6.09,10,11l-2,2-53-7c2.98-6.39,11.19-5.97,14-13,3.67-45.66,7.33-91.34,11-137,3.07-18.7,9.53-51.6,5-70-33.17-.65-44.72,16.19-46,47l-13-2v-1l8-64,141,16v10l-7,56Z"/>
    <path class="cls-2" d="M570,315l-13-1c.43-25.27-32.9-51.7-56-41l-2,74h1c19.27-1.66,21.34-12.75,26-29l11,1-1,70-7-1c.15-19.31-13.59-30.55-31-32l-1,1c-1,30.33-2,60.67-3,91,29.68,1.1,45.05-6.26,45-35h14v48c-34.33-.67-68.67-1.33-103-2v-4c19-2.99,14-27.84,14-49v-138c-1.89-6.27-7.88-7.99-12-12l1-2,121,9v1l-4,51Z"/>
    <path class="cls-2" d="M163,437c-21-80.33-42-160.67-63-241-9.67.67-19.33,1.33-29,2-13.33,80.33-26.67,160.67-40,241-6.29,29.75-.81,74.09-31,80v4c1.79,2.78,51.72-.89,61-1v-6c-22.87-.85-21.36-37.96-12-55,2.58-3.41,59.73-6.96,66-5,12.21,10.77,16.68,55.57-5,58v6c30.33-1.33,60.67-2.67,91-4v-6c-31.78-.99-30.87-47.13-38-73ZM112,437c-19.66,1-39.34,2-59,3l-1-1c7.67-47,15.33-94,23-141,8.06,7.89,32.56,118.36,37,138v1Z"/>
    <path class="cls-2" d="M388,347c-12.78-16.89-5.37-57.81-5-87,.67-.33,1.33-.67,2-1,18.25,8.02,17.44,21.98,25,41v2c4-.33,8-.67,12-1v-57c-6,.33-12,.67-18,1,.67,5,1.33,10,2,15-.33.67-.67,1.33-1,2-6.6-3.98-11.11-9.21-20-11-.33-5.33-.67-10.67-1-16h-15c-.33,4.33-.67,8.67-1,13,0,0-31.04,15.39-36,22-37.01,49.32,10.6,82.61,34,110-.33,25.66-.67,51.34-1,77h-1c-16.55-10.43-29.27-32.2-29-59-3.33.33-6.67.67-10,1-3.22,3.54-2.64,61.73,0,68v2c6-.67,12-1.33,18-2-1-5-2-10-3-15h1c7.47,5.78,13.34,12.22,24,15v26h9c.33-7.33.67-14.67,1-22,20.93-5.14,34.47-3.35,45-18,26.69-37.13-3.61-92.78-32-106ZM367,325c-.67.33-1.33.67-2,1-20.2-25.47-38.31-45.57,0-69,4.52,3.91,2.3,54.83,2,68ZM377,462c.33-23.66.67-47.34,1-71,31.75,7.1,55.86,73.34-1,71Z"/>
    <path class="cls-2" d="M268,365c-10-8.67-20-17.33-30-26-3-25-6-50-9-75v-9c15.37,3.07,27.05,21.77,28,39,3.67-.33,7.33-.67,11-1,4.56-17.69-3.62-39.09-4-58-5.67,1-11.33,2-17,3-1.17,4.56-.2,10.84,2,15v1c-9.09.85-23.02-7.51-23-21-5.67.67-11.33,1.33-17,2v12c-62.36,11.22-32.41,89.42-6,116,9.33,8,18.67,16,28,24,4.33,28.66,8.67,57.34,13,86h-3c-18.27-9.12-30.74-30.14-34-54-3,.33-6,.67-9,1h-3c3,23,6,46,9,69,5.67-1,11.33-2,17-3-1-5-2-10-3-15h1c7.45,5.21,15.39,8.15,24,13,4.81,3.41,5.9,18.46,6,26,.67.33,1.33.67,2,1,2.67-.33,5.33-.67,8-1-1-7.67-2-15.33-3-23l1-2c76.5-13.55,43.88-87.24,11-120ZM222,324c-1.33.33-2.67.67-4,1-15.15-22.9-46.88-42.27-10-71,10.26,7.33,7.02,55.15,14,69v1ZM246,400c31,5.27,70.28,77.99,10,77-3.33-25.66-6.67-51.34-10-77Z"/>
    <text class="cls-1" transform="translate(870.74 562.19)"><tspan x="0" y="0">®</tspan></text>
  </g>
</svg>